<?xml version="1.0" encoding="UTF-8"?>
<svg version="1.1" xmlns="http://www.w3.org/2000/svg" width="1024" height="1024">
<path d="M0 0 C337.92 0 675.84 0 1024 0 C1024 337.92 1024 675.84 1024 1024 C686.08 1024 348.16 1024 0 1024 C0 686.08 0 348.16 0 0 Z " fill="#050505" transform="translate(0,0)"/>
<path d="M0 0 C337.92 0 675.84 0 1024 0 C1024 337.92 1024 675.84 1024 1024 C686.08 1024 348.16 1024 0 1024 C0 686.08 0 348.16 0 0 Z M177 149 C176.42830078 149.41088867 175.85660156 149.82177734 175.26757812 150.24511719 C146.26176842 171.40933397 127.3558807 200.16364715 119 235 C118.78472656 235.85464844 118.56945312 236.70929688 118.34765625 237.58984375 C115.92454373 247.65371985 115.81779167 257.85905451 115.6894989 268.16366577 C115.66916577 269.5815058 115.648586 270.99934232 115.62778294 272.41717553 C115.57257824 276.29524586 115.5240514 280.17337202 115.47763754 284.05155662 C115.44763274 286.54352288 115.41624015 289.03546879 115.38462007 291.52741504 C114.84315016 334.72217451 114.83529186 377.91816388 114.83274293 421.11567354 C114.83223932 427.88294696 114.82992706 434.65021905 114.82724571 441.41749191 C114.81852335 463.89770346 114.81381588 486.37791036 114.81457619 508.85812362 C114.81461614 510.05301411 114.8146561 511.24790461 114.81469727 512.47900391 C114.81473815 513.67539995 114.81477903 514.87179599 114.81482115 516.10444646 C114.81523093 535.65517181 114.80555676 555.20587822 114.7915589 574.75659807 C114.77718372 594.99761447 114.77028853 615.23862159 114.77115268 635.47964323 C114.77148301 646.77920876 114.76880458 658.07875411 114.75797462 669.37831497 C114.74885718 678.94775609 114.74670667 688.51716775 114.75348405 698.08661135 C114.75673558 702.95408064 114.75685415 707.82149339 114.7481308 712.68895721 C114.74021057 717.15382199 114.74175259 721.61858585 114.75041493 726.08344834 C114.75193717 727.68579364 114.75018279 729.28814671 114.74455485 730.89048286 C114.64807524 760.33753447 119.42072671 790.09894772 134 816 C134.3599707 816.64839844 134.71994141 817.29679688 135.09082031 817.96484375 C139.96841466 826.67637388 145.36583196 834.50098167 152 842 C152.84304687 842.97582031 153.68609375 843.95164062 154.5546875 844.95703125 C181.32397208 875.46145069 217.99494884 891.38285261 258 895 C265.32182605 895.44607122 272.64705517 895.40776901 279.97938538 895.38095093 C282.08720704 895.38441871 284.19502689 895.38919071 286.30284303 895.39513266 C292.02325779 895.40751838 297.74352011 895.40152971 303.46393502 895.39217401 C309.66102006 895.38533229 315.85808051 895.39588988 322.05516052 895.40411377 C333.46890669 895.41663346 344.88258582 895.41561865 356.29633156 895.40737936 C366.84367701 895.39980377 377.39100496 895.397876 387.93835258 895.4014473 C388.99174724 895.40179103 388.99174724 895.40179103 390.06642259 895.40214171 C392.91781819 895.40307587 395.76921379 895.40403108 398.62060937 895.405021 C425.31505028 895.41417774 452.00946078 895.40590968 478.70389699 895.38973031 C502.3720316 895.37549418 526.04011777 895.37677103 549.70825195 895.39111328 C576.35839674 895.40720894 603.00851471 895.41352965 629.65866369 895.40427649 C632.50426351 895.40331447 635.34986335 895.40237594 638.19546318 895.4014473 C639.24629408 895.40109145 639.24629408 895.40109145 640.31835388 895.40072841 C650.85458303 895.39732923 661.39079267 895.40128196 671.92701912 895.40888596 C683.9174922 895.41749685 695.90789574 895.41496283 707.89836676 895.39904372 C714.00746384 895.39119837 720.11646303 895.38800523 726.22555923 895.39799118 C731.83202544 895.40701645 737.43830421 895.40187802 743.04475372 895.38605852 C745.05857437 895.38274357 747.07241129 895.38432932 749.08622123 895.39168589 C788.00447446 895.52280406 825.10974943 885.90488383 855 860 C855.80566406 859.31550781 856.61132812 858.63101563 857.44140625 857.92578125 C884.40262473 834.42437484 903.16584422 801.84724087 907.66369057 766.14503384 C907.85328846 764.65299645 907.85328846 764.65299645 908.04671661 763.1308169 C909.25165244 752.96809881 909.41971324 742.90101366 909.38095093 732.67945862 C909.3844193 730.64318386 909.38919167 728.60691098 909.39513266 726.57064193 C909.40751064 721.04791329 909.40153334 715.52534268 909.39217401 710.0026139 C909.38532893 704.0181712 909.39589157 698.0337539 909.40411377 692.04931641 C909.41663069 681.02792479 909.41561993 670.00657949 909.40737936 658.98518615 C909.39980164 648.79899166 909.39787697 638.61281531 909.4014473 628.42661858 C909.40167645 627.74821362 909.40190561 627.06980866 909.40214171 626.37084598 C909.40307588 623.61625096 909.4040311 620.86165594 909.405021 618.10706094 C909.41417701 592.32034498 909.40591122 566.53366051 909.38973031 540.74694941 C909.37549745 517.89109719 909.37676846 495.03529514 909.39111328 472.17944336 C909.4072154 446.43827211 909.41352579 420.69712865 909.40427649 394.95595306 C909.40331449 392.20636778 909.40237596 389.45678249 909.4014473 386.70719719 C909.40121006 386.03029166 909.40097283 385.35338614 909.40072841 384.65596832 C909.39733157 374.48267464 909.40127761 364.30940118 909.40888596 354.13611031 C909.41750438 342.55522673 909.41494776 330.97439942 909.39904372 319.39352245 C909.39120763 313.49480413 909.38798901 307.59618708 909.39799118 301.69746971 C909.47004493 255.19353031 907.02261246 211.70740206 875 175 C873.77023437 173.57107422 873.77023437 173.57107422 872.515625 172.11328125 C854.65900782 151.75260252 832.21000331 138.20294003 806.625 129.75 C805.93148437 129.51555176 805.23796875 129.28110352 804.5234375 129.03955078 C788.83326721 124.12579017 772.98338562 123.56272977 756.69056702 123.61904907 C754.48592744 123.61558539 752.2812896 123.61081609 750.07665533 123.60486734 C744.06551699 123.59242525 738.05452283 123.59849664 732.04338419 123.60782599 C726.21145549 123.61394233 720.37955653 123.60590455 714.54763197 123.5983839 C701.89459843 123.58264248 689.24161054 123.58393356 676.58857274 123.59262064 C665.51466026 123.60018564 654.44076444 123.60212889 643.3668499 123.5985527 C642.6305354 123.59832355 641.89422091 123.59809439 641.13559385 123.59785829 C638.14618121 123.59692418 635.15676858 123.59596897 632.16735596 123.594979 C604.1583623 123.58581431 576.14939759 123.59410265 548.1404084 123.61026969 C523.29158813 123.62450365 498.442814 123.62323244 473.59399414 123.60888672 C445.63572671 123.59279956 417.67748484 123.58646591 389.71921343 123.59572351 C386.73513091 123.59668557 383.75104839 123.5976241 380.76696587 123.5985527 C379.6649394 123.59890855 379.6649394 123.59890855 378.54064977 123.59927159 C367.47819919 123.60267456 356.41576717 123.59871083 345.35331917 123.59111404 C332.76573315 123.58251269 320.17819964 123.58473073 307.59062011 123.60095628 C301.17409052 123.60881449 294.75765429 123.6119725 288.34112549 123.60200882 C282.45705634 123.59301048 276.5731663 123.59807884 270.68911319 123.61394148 C268.57089022 123.61726765 266.45265183 123.61564457 264.33443893 123.60831411 C232.75751752 123.50749667 202.95632222 130.30723724 177 149 Z " fill="#F4F3F0" transform="translate(0,0)"/>
<path d="M0 0 C0.90991699 0.13954102 1.81983398 0.27908203 2.75732422 0.42285156 C17.70385111 2.74737333 31.96965079 6.14106692 46.42016602 10.57470703 C73.39683789 19.52144916 73.39683789 19.52144916 101 16 C102.33117023 15.65813059 103.66426051 15.32355664 105 15 C104.910103 16.52649673 104.910103 16.52649673 104.81838989 18.08383179 C103.1907884 46.25163068 102.73761269 74.32141461 102.8626709 102.53161621 C102.88368315 107.80361212 102.89237885 113.07562994 102.90234375 118.34765625 C102.92335509 128.56515782 102.95716308 138.78256812 103 149 C100.68756208 149.02685412 98.3750373 149.04632841 96.0625 149.0625 C94.77472656 149.07410156 93.48695313 149.08570313 92.16015625 149.09765625 C89 149 89 149 88 148 C87.80351065 145.95821938 87.61379418 143.91557563 87.45703125 141.87036133 C84.99719756 110.7366408 74.21382771 79.3751111 53 56 C52.53110352 55.48195801 52.06220703 54.96391602 51.57910156 54.43017578 C34.3319374 35.62574339 8.64332285 20.17930144 -17.41796875 18.87939453 C-48.1829153 17.96788051 -75.39619882 24.25604504 -99 45 C-100.22589844 46.01126953 -100.22589844 46.01126953 -101.4765625 47.04296875 C-128.29728297 69.83642934 -141.26540311 106.77791718 -149 140 C-149.26055176 141.10827148 -149.52110352 142.21654297 -149.78955078 143.35839844 C-153.53631727 159.48194581 -156.46266107 175.51531231 -158 192 C-158.10296387 193.07749512 -158.20592773 194.15499023 -158.31201172 195.26513672 C-161.49714299 230.17075379 -160.84530962 265.1907924 -157 300 C-156.83177734 301.62905273 -156.83177734 301.62905273 -156.66015625 303.29101562 C-151.4575655 353.22946387 -135.22334949 406.51756401 -96.0625 440.3125 C-85.36861029 448.88425596 -73.77512906 455.18258064 -61 460 C-59.85015625 460.43699219 -58.7003125 460.87398437 -57.515625 461.32421875 C-48.18892459 464.22608514 -38.89056264 464.36260784 -29.1875 464.375 C-28.51991669 464.37708466 -27.85233337 464.37916931 -27.16452026 464.38131714 C-7.41456715 464.37434061 11.71380566 460.33224591 26.8125 446.8125 C38.50895656 434.3850149 40.30466509 416.08116466 40.29052734 399.87011719 C40.29724457 398.73485092 40.30396179 397.59958466 40.31088257 396.42991638 C40.32970491 392.71885668 40.33377865 389.00797931 40.3359375 385.296875 C40.34237593 382.68817067 40.34910504 380.07946704 40.35610962 377.47076416 C40.36883834 372.01744418 40.3718809 366.56417267 40.37060547 361.11083984 C40.36940583 354.85269627 40.39049263 348.59489851 40.4220928 342.3368423 C40.45164172 336.26332027 40.458575 330.18996121 40.45738602 324.11637115 C40.45972746 321.55702553 40.46846757 318.99767663 40.48405075 316.43837738 C40.9027991 288.31889473 40.9027991 288.31889473 28.22265625 264.01953125 C23.18694176 259.18977645 17.44613174 256.51352763 11 254 C10.25878906 253.70222656 9.51757812 253.40445313 8.75390625 253.09765625 C-1.47596626 249.32480419 -12.37689871 248.7700942 -23.17163086 248.34130859 C-28.90112413 248.09887587 -28.90112413 248.09887587 -30 247 C-30 243.37 -30 239.74 -30 236 C30.06 236 90.12 236 152 236 C152 239.63 152 243.26 152 247 C151.17757813 247.08636719 150.35515625 247.17273438 149.5078125 247.26171875 C138.9760175 248.58731419 129.13995146 251.7050564 122 260 C114.74573842 270.84717416 112.548145 281.20725238 112.58007812 294.09375 C112.57160858 295.36661865 112.56313904 296.6394873 112.55441284 297.95092773 C112.53236281 301.41376597 112.52925759 304.87636513 112.53116035 308.33926392 C112.53128077 311.24170759 112.52268819 314.14410189 112.51438284 317.04653168 C112.49520999 323.89824273 112.49224326 330.74983198 112.49902344 337.6015625 C112.50566695 344.64657968 112.4827738 351.69107369 112.44570971 358.7359848 C112.41493254 364.80850975 112.40366109 370.88086702 112.40754652 376.95346832 C112.40960496 380.56996979 112.40427561 384.18606338 112.37965393 387.80249023 C112.35308464 391.83742526 112.3671753 395.87126571 112.38476562 399.90625 C112.37150238 401.08888428 112.35823914 402.27151855 112.34457397 403.48999023 C112.4319011 412.13765091 114.34039407 418.88541603 120.16796875 425.4375 C120.83441406 425.953125 121.50085938 426.46875 122.1875 427 C123.19876953 427.804375 123.19876953 427.804375 124.23046875 428.625 C124.81441406 429.07875 125.39835937 429.5325 126 430 C126.66 430.66 127.32 431.32 128 432 C98.28580856 452.07989728 64.85247795 468.25594636 30 477 C29.35724121 477.16306641 28.71448242 477.32613281 28.05224609 477.49414062 C-29.72980335 492.03838498 -91.55949316 488.10781772 -143.70703125 457.671875 C-153.87455816 451.49518896 -163.20307178 444.04841391 -171.8984375 435.94921875 C-173.77927667 434.20472294 -175.70618031 432.56532432 -177.6875 430.9375 C-181.55119785 427.62703371 -184.75031876 423.9055802 -188 420 C-188.68473389 419.19973389 -188.68473389 419.19973389 -189.38330078 418.38330078 C-207.83365724 396.80576526 -221.64082111 372.23337347 -231.10888672 345.49291992 C-231.72439551 343.77101299 -232.35738289 342.05528953 -233.00439453 340.3449707 C-235.46816771 333.7968895 -237.38653711 327.24325008 -239 320.4375 C-239.25418701 319.36975342 -239.50837402 318.30200684 -239.77026367 317.2019043 C-241.59633586 309.28430917 -243.06766311 301.34111072 -244.3125 293.3125 C-244.47169922 292.28761475 -244.63089844 291.26272949 -244.79492188 290.20678711 C-246.89181355 275.87148417 -247.20683929 261.58268682 -247.1875 247.125 C-247.18656342 246.21859772 -247.18562683 245.31219543 -247.18466187 244.37832642 C-247.11135495 211.58124449 -242.76724795 180.3916317 -233 149 C-232.74025391 148.14567383 -232.48050781 147.29134766 -232.21289062 146.41113281 C-221.46871544 111.54089843 -202.26331769 80.14331715 -177 54 C-176.32839844 53.27683594 -175.65679687 52.55367188 -174.96484375 51.80859375 C-149.76744758 25.32725382 -112.58783332 7.4514064 -77 1 C-75.87416504 0.78005371 -75.87416504 0.78005371 -74.72558594 0.55566406 C-50.76191746 -3.99811846 -24.06157539 -3.8380427 0 0 Z " fill="#F4F3EF" transform="translate(682,228)"/>
<path d="M0 0 C63.36 0 126.72 0 192 0 C192 2.97 192 5.94 192 9 C190.88882812 9.18175781 189.77765625 9.36351562 188.6328125 9.55078125 C166.58915959 13.20281689 166.58915959 13.20281689 149.625 27.125 C140.57215306 40.66716858 138.69372442 55.13375213 138.73498535 71.05123901 C138.73140756 72.44407583 138.72695398 73.83691063 138.72170877 75.22974217 C138.70986555 79.02950414 138.710217 82.82917939 138.71264386 86.62895536 C138.71306537 90.73828253 138.70194554 94.84758059 138.69218445 98.95689392 C138.67676253 106.07212344 138.66832681 113.18733321 138.66447449 120.30257797 C138.65870824 130.61275126 138.64009 140.92287175 138.61803395 151.23302163 C138.58234469 167.9929042 138.55402235 184.75278977 138.53173828 201.51269531 C138.53040329 202.51478468 138.5290683 203.51687406 138.52769285 204.54932977 C138.5182704 211.65788627 138.50910919 218.7664431 138.5 225.875 C138.4896099 233.97786484 138.47908917 242.08072948 138.46826172 250.18359375 C138.46626561 251.68033586 138.46626561 251.68033586 138.46422917 253.20731519 C138.44173383 269.8946731 138.411506 286.58200861 138.37586927 303.2693435 C138.3543044 313.54156585 138.33961179 323.81375334 138.33403051 334.08599706 C138.32975592 341.13824039 138.31844697 348.19045057 138.30180657 355.24267547 C138.29248102 359.2999542 138.28625715 363.35717107 138.28886986 367.41446114 C138.29748404 384.0346155 138.07745415 400.48414669 136 417 C135.79867105 418.66471854 135.59737941 420.32944159 135.39612579 421.99416924 C132.93786434 442.16304486 126.00853553 461.86010453 117 480 C116.47237061 481.07967041 116.47237061 481.07967041 115.93408203 482.18115234 C108.35481632 497.56791335 99.02747508 510.78106005 87 523 C86.22269531 523.80179688 85.44539062 524.60359375 84.64453125 525.4296875 C71.88829808 537.7799434 53.18925045 546.2738141 36 550 C34.82566406 550.2784375 33.65132813 550.556875 32.44140625 550.84375 C11.9983403 555.23226147 -12.01978752 555.33468275 -32 549 C-33.21945313 548.63777344 -34.43890625 548.27554688 -35.6953125 547.90234375 C-55.200589 541.57920467 -71.25995883 529.61432758 -81.046875 511.28515625 C-88.67595046 496.1905955 -90.89922139 478.15835078 -86.0390625 461.73828125 C-80.84396717 448.04744731 -72.99026921 439.21005607 -59.81640625 432.96484375 C-51.87856956 429.83340359 -42.7977515 429.68391277 -34.75 432.5 C-25.12395602 436.9848614 -19.06060628 444.29805142 -15 454 C-13.75281283 458.45208025 -13.81646351 462.9102596 -13.8125 467.5 C-13.80025391 468.24636719 -13.78800781 468.99273438 -13.77539062 469.76171875 C-13.76437662 473.91032904 -13.90182054 477.29485367 -16 481 C-17.98246398 482.03432904 -19.98413316 483.03238392 -22 484 C-24.25590249 486.1099784 -24.25590249 486.1099784 -26 489 C-26.37382812 489.56976562 -26.74765625 490.13953125 -27.1328125 490.7265625 C-31.41538855 498.48311632 -31.62504097 509.27090149 -29.234375 517.69921875 C-26.18056666 524.06131947 -22.2757639 528.26543955 -15.9375 531.25 C-14.89464844 531.75015625 -13.85179687 532.2503125 -12.77734375 532.765625 C-3.66184775 536.81695655 5.59230921 535.47993369 14.828125 532.3203125 C31.66021497 525.3138514 41.37897539 511.004397 48.43676758 494.73461914 C55.16470036 478.24652617 58.18127042 460.62748509 60 443 C60.13196715 441.72141503 60.13196715 441.72141503 60.26660031 440.41700006 C61.04396461 432.08360253 61.14880904 423.78930889 61.14717102 415.42816162 C61.15047776 413.88240698 61.15420501 412.33665319 61.1583125 410.79090047 C61.16824743 406.57331096 61.17203538 402.35573568 61.17470181 398.13813615 C61.17863002 393.57766518 61.18820598 389.01720521 61.19691467 384.45674133 C61.21660167 373.46268894 61.2267324 362.46863574 61.23564246 351.47457016 C61.24003546 346.28845846 61.24539938 341.10234778 61.25063133 335.91623688 C61.26763084 318.66470426 61.28212554 301.41317224 61.28938007 284.16163254 C61.29128971 279.69320424 61.29321009 275.22477594 61.29516602 270.75634766 C61.29564976 269.6458501 61.2961335 268.53535255 61.2966319 267.39120355 C61.30493467 249.39670077 61.33028151 231.40226441 61.36274669 213.40779063 C61.39585227 194.90676912 61.41383173 176.40578136 61.41702431 157.90473008 C61.41918545 147.52756766 61.42787674 137.15050229 61.45348549 126.77336884 C61.47523978 117.93827757 61.48321942 109.10330698 61.47351871 100.26819196 C61.4689886 95.76588958 61.47078501 91.26383598 61.49028015 86.76156807 C61.50801618 82.62969099 61.50683058 78.49824227 61.49138286 74.36635998 C61.4890226 72.88191634 61.49324693 71.3974422 61.50521151 69.9130449 C61.62189694 54.46350723 59.20341198 37.60810595 48.4375 25.75 C40.4346777 18.31773539 30.509023 15.12010769 20 13 C18.83210938 12.73316406 18.83210938 12.73316406 17.640625 12.4609375 C14.17121399 11.85533025 10.6981387 11.64242724 7.1875 11.4375 C6.14819336 11.37272461 6.14819336 11.37272461 5.08789062 11.30664062 C3.39211314 11.20138547 1.69607948 11.10027137 0 11 C0 7.37 0 3.74 0 0 Z " fill="#F4F3F0" transform="translate(271,230)"/>
<path d="M0 0 C63.03 0 126.06 0 191 0 C191 2.97 191 5.94 191 9 C183.08 9.495 183.08 9.495 175 10 C178.00440021 7.99706653 179.70993945 7.50728374 183.1875 6.875 C184.08855469 6.70742187 184.98960937 6.53984375 185.91796875 6.3671875 C186.60503906 6.24601563 187.29210937 6.12484375 188 6 C188.33 4.68 188.66 3.36 189 2 C126.96 2 64.92 2 1 2 C1 3.98 1 5.96 1 8 C0.67 8 0.34 8 0 8 C0 5.36 0 2.72 0 0 Z " fill="#FDFDFB" transform="translate(272,230)"/>
<path d="M0 0 C60.06 0 120.12 0 182 0 C182 3.3 182 6.6 182 10 C180.02 10 178.04 10 176 10 C177.32 9.67 178.64 9.34 180 9 C180 6.69 180 4.38 180 2 C121.59 2 63.18 2 3 2 C3 4.64 3 7.28 3 10 C6.3 10 9.6 10 13 10 C13 10.33 13 10.66 13 11 C8.71 11 4.42 11 0 11 C0 7.37 0 3.74 0 0 Z " fill="#E2E2E1" transform="translate(652,464)"/>
<path d="M0 0 C0.33 0 0.66 0 1 0 C1 18.81 1 37.62 1 57 C0.67 57 0.34 57 0 57 C-2.46159361 47.397542 -2.3057367 37.76422653 -2.26074219 27.92773438 C-2.24994428 25.11046217 -2.26072514 22.29381631 -2.2734375 19.4765625 C-2.27211716 17.67447777 -2.26955737 15.87239342 -2.265625 14.0703125 C-2.26967346 13.23380157 -2.27372192 12.39729065 -2.27789307 11.53543091 C-2.24339136 7.23952791 -1.99230706 3.91635732 0 0 Z " fill="#EBEBE9" transform="translate(437,449)"/>
<path d="M0 0 C0.66 0.33 1.32 0.66 2 1 C0.02 1.99 0.02 1.99 -2 3 C-1.34 2.01 -0.68 1.02 0 0 Z M-4 3 C-3.34 3.33 -2.68 3.66 -2 4 C-3.98 4.99 -3.98 4.99 -6 6 C-5.34 5.01 -4.68 4.02 -4 3 Z M-8 6 C-7.34 6.33 -6.68 6.66 -6 7 C-8.5262998 10.26932915 -10.47159206 12.65147561 -13.9375 14.9375 C-16.58291703 16.71910739 -17.93179174 17.9683708 -19.875 20.375 C-23.07345169 24.31351897 -26.84901857 27.12381236 -31 30 C-29.68111554 27.07981131 -28.25903529 25.01101183 -25.98828125 22.7578125 C-25.39466797 22.16613281 -24.80105469 21.57445312 -24.18945312 20.96484375 C-23.57005859 20.35769531 -22.95066406 19.75054687 -22.3125 19.125 C-21.41241211 18.22587891 -21.41241211 18.22587891 -20.49414062 17.30859375 C-16.48454778 13.33776174 -12.32171835 9.62824622 -8 6 Z M-33 31 C-32.67 31.99 -32.34 32.98 -32 34 C-34.475 35.485 -34.475 35.485 -37 37 C-35.84826645 34.53199953 -34.95216435 32.95216435 -33 31 Z " fill="#EDECEB" transform="translate(528,262)"/>
<path d="M0 0 C1.7644043 0.06574219 1.7644043 0.06574219 3.56445312 0.1328125 C4.77939453 0.184375 5.99433594 0.2359375 7.24609375 0.2890625 C9.07430664 0.35480469 9.07430664 0.35480469 10.93945312 0.421875 C20.80967778 0.81170285 20.80967778 0.81170285 25.68359375 1.9140625 C25.68359375 2.2440625 25.68359375 2.5740625 25.68359375 2.9140625 C21.23616917 2.93889351 16.78878197 2.95698433 12.34130859 2.96899414 C10.83023373 2.97400412 9.31916366 2.98081394 7.80810547 2.98950195 C5.62856863 3.00171426 3.44909622 3.00732428 1.26953125 3.01171875 C-0.6942749 3.01957397 -0.6942749 3.01957397 -2.69775391 3.02758789 C-6.00654138 2.92378367 -9.07235643 2.54838618 -12.31640625 1.9140625 C-12.31640625 1.5840625 -12.31640625 1.2540625 -12.31640625 0.9140625 C-8.11539648 0.09913511 -4.27280794 -0.16311134 0 0 Z " fill="#E8E7E5" transform="translate(263.31640625,780.0859375)"/>
<path d="M0 0 C0 0.33 0 0.66 0 1 C-3.63 1 -7.26 1 -11 1 C-11 1.66 -11 2.32 -11 3 C-13.81134364 3.36696071 -16.62329855 3.71876381 -19.4375 4.0625 C-20.22060547 4.16626953 -21.00371094 4.27003906 -21.81054688 4.37695312 C-27.42084871 5.04649532 -32.40463074 4.80093874 -38 4 C-38 3.67 -38 3.34 -38 3 C-25.2500611 1.01134802 -12.91936986 -0.4997464 0 0 Z " fill="#DFDFDE" transform="translate(643,226)"/>
<path d="M0 0 C0.66 0 1.32 0 2 0 C1.34 7.59 0.68 15.18 0 23 C-0.33 23 -0.66 23 -1 23 C-1.7547451 15.48738341 -2.24525048 8.47150288 -1 1 C-0.67 0.67 -0.34 0.34 0 0 Z " fill="#E5E6E4" transform="translate(523,410)"/>
<path d="M0 0 C3.70717977 0.55282505 5.14208237 1.89906323 7.5 4.75 C8.09941406 5.46671875 8.69882812 6.1834375 9.31640625 6.921875 C9.87199219 7.60765625 10.42757812 8.2934375 11 9 C11.804375 9.99 12.60875 10.98 13.4375 12 C14.2109375 12.99 14.2109375 12.99 15 14 C10.58993138 13.5694933 8.16999427 10.5782946 5.25 7.5625 C4.74339844 7.05912109 4.23679687 6.55574219 3.71484375 6.03710938 C0 2.26719382 0 2.26719382 0 0 Z " fill="#E3E3E2" transform="translate(725,272)"/>
<path d="M0 0 C0 3 0 3 -1.5 4.6875 C-1.995 5.120625 -2.49 5.55375 -3 6 C-2.42655063 3.13275314 -2.1385485 2.1385485 0 0 Z M-5 6 C-4.34 6.33 -3.68 6.66 -3 7 C-6.96 10.96 -10.92 14.92 -15 19 C-15.66 18.34 -16.32 17.68 -17 17 C-13.04 13.37 -9.08 9.74 -5 6 Z " fill="#F9F9F7" transform="translate(879,836)"/>
<path d="M0 0 C0.33 0 0.66 0 1 0 C1.39250518 3.62333013 1.76102213 7.24870201 2.125 10.875 C2.23714844 11.90753906 2.34929687 12.94007813 2.46484375 14.00390625 C2.56152344 14.99003906 2.65820312 15.97617187 2.7578125 16.9921875 C2.8520752 17.90339355 2.94633789 18.81459961 3.04345703 19.75341797 C3 22 3 22 1 24 C-1.27904619 15.82556987 -0.89405005 8.38473964 0 0 Z " fill="#E5E5E3" transform="translate(115,746)"/>
<path d="M0 0 C0.680625 0.721875 1.36125 1.44375 2.0625 2.1875 C4.16006249 4.30917241 6.34995143 6.00575951 8.8125 7.6875 C9.864375 8.450625 10.91625 9.21375 12 10 C12 10.66 12 11.32 12 12 C12.99 12.33 13.98 12.66 15 13 C14.67 13.66 14.34 14.32 14 15 C8.80789528 11.19695186 3.84390238 7.23841458 -1 3 C-0.67 2.01 -0.34 1.02 0 0 Z " fill="#E8E8E6" transform="translate(202,754)"/>
<path d="M0 0 C3.30653354 1.41088411 5.1547817 3.05531369 7.4375 5.8125 C10.16564361 9.0404113 12.96702285 12.05893125 16 15 C15.67 15.66 15.34 16.32 15 17 C13.2456027 15.44221619 11.49653989 13.87905295 9.75 12.3125 C8.77546875 11.44238281 7.8009375 10.57226562 6.796875 9.67578125 C4.25241365 7.24148513 2.047487 4.86160683 0 2 C0 1.34 0 0.68 0 0 Z " fill="#ECECEB" transform="translate(497,649)"/>
<path d="M0 0 C0 0.33 0 0.66 0 1 C-2.31 1 -4.62 1 -7 1 C-7 1.66 -7 2.32 -7 3 C-12.94 3.495 -12.94 3.495 -19 4 C-19.33 3.34 -19.66 2.68 -20 2 C-13.38190423 -0.46254726 -6.99560484 -0.18935472 0 0 Z " fill="#CCCCCA" transform="translate(231,661)"/>
<path d="M0 0 C1.12921875 0.06703125 2.2584375 0.1340625 3.421875 0.203125 C4.35515625 0.38359375 5.2884375 0.5640625 6.25 0.75 C6.91 1.74 7.57 2.73 8.25 3.75 C1.32 3.09 -5.61 2.43 -12.75 1.75 C-12.75 1.42 -12.75 1.09 -12.75 0.75 C-8.37413063 -0.12517387 -4.44965778 -0.30758003 0 0 Z " fill="#EDEDEB" transform="translate(781.75,122.25)"/>
<path d="M0 0 C3.98671063 1.36687222 6.88494633 3.15195093 10 6 C10 6.66 10 7.32 10 8 C11.32 8.33 12.64 8.66 14 9 C13.67 10.32 13.34 11.64 13 13 C12.57589844 12.54109375 12.15179688 12.0821875 11.71484375 11.609375 C7.76420952 7.47640381 4.09284198 4.59838877 -1 2 C-0.67 1.34 -0.34 0.68 0 0 Z " fill="#ECECEA" transform="translate(309,246)"/>
<path d="M0 0 C1.96529009 3.45207476 2.7746477 6.88476226 3.625 10.75 C3.88539062 11.92046875 4.14578125 13.0909375 4.4140625 14.296875 C4.60742188 15.18890625 4.80078125 16.0809375 5 17 C4.01 16.67 3.02 16.34 2 16 C1.015625 13.671875 1.015625 13.671875 0.25 10.75 C-0.01296875 9.79609375 -0.2759375 8.8421875 -0.546875 7.859375 C-1.01648367 4.89598234 -0.77657937 2.87544255 0 0 Z " fill="#DFDFDE" transform="translate(119,776)"/>
<path d="M0 0 C1.41791408 0.45445964 2.83428046 0.91374944 4.25 1.375 C5.43335938 1.75785156 5.43335938 1.75785156 6.640625 2.1484375 C8.86627958 2.95173667 10.90931672 3.89711662 13 5 C13 5.66 13 6.32 13 7 C2.44191344 3.92482916 2.44191344 3.92482916 -2 2 C-1.34 1.34 -0.68 0.68 0 0 Z " fill="#E8E8E6" transform="translate(565,696)"/>
<path d="M0 0 C3.54243452 1.36591169 6.92627929 2.90931484 10.3125 4.625 C11.63701172 5.29402344 11.63701172 5.29402344 12.98828125 5.9765625 C13.65214844 6.31429687 14.31601563 6.65203125 15 7 C14.67 7.66 14.34 8.32 14 9 C8.8423143 7.58163643 4.20024742 5.32608425 0 2 C0 1.34 0 0.68 0 0 Z " fill="#E9E9E8" transform="translate(186,872)"/>
<path d="M0 0 C1.67542976 0.28604898 3.34385343 0.61781233 5 1 C1.18384532 3.47045803 -2.84744248 3.43831912 -7.25 3.625 C-7.99507812 3.66367187 -8.74015625 3.70234375 -9.5078125 3.7421875 C-11.3381524 3.83605108 -13.16904143 3.91909718 -15 4 C-14.34 3.01 -13.68 2.02 -13 1 C-10.21484375 0.7421875 -10.21484375 0.7421875 -6.9375 0.875 C-4.95915309 0.94557123 -2.97959663 0.99416908 -1 1 C-0.67 0.67 -0.34 0.34 0 0 Z " fill="#E1E1DF" transform="translate(677,709)"/>
<path d="M0 0 C2.75 0.3125 2.75 0.3125 6 1 C8 1.33333333 10 1.66666667 12 2 C12.33 2.99 12.66 3.98 13 5 C7.76119922 4.44854729 3.02649303 3.57077907 -2 2 C-1.34 1.34 -0.68 0.68 0 0 Z " fill="#E0E0DF" transform="translate(588,704)"/>
<path d="M0 0 C0.33 0 0.66 0 1 0 C2.56835699 5.01874237 3.64342001 9.7404452 4 15 C3.34 15.66 2.68 16.32 2 17 C-1.62870159 5.47835991 -1.62870159 5.47835991 0 0 Z " fill="#E6E6E5" transform="translate(444,543)"/>
<path d="M0 0 C1.28583984 0.28617187 1.28583984 0.28617187 2.59765625 0.578125 C3.87962891 0.84882812 3.87962891 0.84882812 5.1875 1.125 C7.54126494 1.79431704 9.51917212 2.65579958 11.66015625 3.828125 C11.66015625 4.488125 11.66015625 5.148125 11.66015625 5.828125 C3.24515625 3.848125 3.24515625 3.848125 -5.33984375 1.828125 C-2.33984375 -0.171875 -2.33984375 -0.171875 0 0 Z " fill="#E6E6E5" transform="translate(797.33984375,125.171875)"/>
<path d="M0 0 C0 0.66 0 1.32 0 2 C-7.26 1.67 -14.52 1.34 -22 1 C-22 0.67 -22 0.34 -22 0 C-4.75675676 -1.58558559 -4.75675676 -1.58558559 0 0 Z " fill="#E0E0DE" transform="translate(675,475)"/>
<path d="M0 0 C9.59453303 5.0022779 9.59453303 5.0022779 13 9 C12.67 9.66 12.34 10.32 12 11 C9.9912056 9.74151422 7.99370702 8.46948954 6 7.1875 C4.329375 6.12595703 4.329375 6.12595703 2.625 5.04296875 C1.75875 4.36878906 0.8925 3.69460937 0 3 C0 2.01 0 1.02 0 0 Z " fill="#ECECEB" transform="translate(840,143)"/>
<path d="M0 0 C0.99 0.33 1.98 0.66 3 1 C2.55187982 3.1479894 2.09121652 5.29336561 1.625 7.4375 C1.36976563 8.63246094 1.11453125 9.82742188 0.8515625 11.05859375 C0.57054687 12.02925781 0.28953125 12.99992188 0 14 C-0.99 14.495 -0.99 14.495 -2 15 C-1.85879286 13.06215735 -1.71187127 11.12473045 -1.5625 9.1875 C-1.48128906 8.10855469 -1.40007812 7.02960937 -1.31640625 5.91796875 C-1 3 -1 3 0 0 Z " fill="#E8E8E7" transform="translate(185,692)"/>
<path d="M0 0 C0.86625 0.19980469 1.7325 0.39960938 2.625 0.60546875 C3.49125 0.79753906 4.3575 0.98960937 5.25 1.1875 C7.06192962 1.64942285 8.85107343 2.20165989 10.625 2.79296875 C10.955 3.78296875 11.285 4.77296875 11.625 5.79296875 C3.21 3.81296875 3.21 3.81296875 -5.375 1.79296875 C-2.375 -0.20703125 -2.375 -0.20703125 0 0 Z " fill="#E6E6E5" transform="translate(683.375,476.20703125)"/>
<path d="M0 0 C0.66 0 1.32 0 2 0 C3.57300962 5.73303505 4.24327778 10.15659442 3 16 C2.67 16 2.34 16 2 16 C1.66104344 14.27192682 1.32908475 12.54248026 1 10.8125 C0.814375 9.84957031 0.62875 8.88664063 0.4375 7.89453125 C0.03122388 5.2065794 -0.07933572 2.71228981 0 0 Z " fill="#E8E8E6" transform="translate(439,524)"/>
<path d="M0 0 C0 1.32 0 2.64 0 4 C-4.62 4 -9.24 4 -14 4 C-14 3.67 -14 3.34 -14 3 C-12.02 2.67 -10.04 2.34 -8 2 C-8 1.67 -8 1.34 -8 1 C-2.25 0 -2.25 0 0 0 Z " fill="#D6D5D4" transform="translate(785,373)"/>
<path d="M0 0 C1.15048828 -0.03867187 1.15048828 -0.03867187 2.32421875 -0.078125 C3.30841797 0.08429687 3.30841797 0.08429687 4.3125 0.25 C4.9725 1.24 5.6325 2.23 6.3125 3.25 C1.0325 2.92 -4.2475 2.59 -9.6875 2.25 C-9.6875 1.92 -9.6875 1.59 -9.6875 1.25 C-6.45795351 0.41656865 -3.32170868 0.10715189 0 0 Z " fill="#DBDBD8" transform="translate(625.6875,709.75)"/>
<path d="M0 0 C1.27450447 0.59638333 2.54446877 1.20247416 3.8125 1.8125 C4.52019531 2.14894531 5.22789062 2.48539062 5.95703125 2.83203125 C8.01129035 4.00645471 9.41616278 5.25628016 11 7 C10.67 7.66 10.34 8.32 10 9 C6.37 6.69 2.74 4.38 -1 2 C-0.67 1.34 -0.34 0.68 0 0 Z " fill="#ECECEA" transform="translate(705,257)"/>
<path d="M0 0 C0.33 0.66 0.66 1.32 1 2 C-0.14453125 4.78515625 -0.14453125 4.78515625 -1.8125 8.0625 C-2.35519531 9.14660156 -2.89789063 10.23070312 -3.45703125 11.34765625 C-5 14 -5 14 -7 15 C-3.4028777 3.99280576 -3.4028777 3.99280576 -2 1 C-1.34 0.67 -0.68 0.34 0 0 Z " fill="#EBEBEA" transform="translate(323,719)"/>
<path d="M0 0 C7 9.1 7 9.1 7 12 C3.53875184 10.84625061 3.11687417 10.12298029 1.25 7.125 C0.80140625 6.42632813 0.3528125 5.72765625 -0.109375 5.0078125 C-1 3 -1 3 0 0 Z " fill="#ECECEA" transform="translate(192,740)"/>
<path d="M0 0 C0.33 0 0.66 0 1 0 C1.33 1.65 1.66 3.3 2 5 C2.33 5 2.66 5 3 5 C3.25 12.625 3.25 12.625 1 16 C-0.12862175 10.63904667 -0.09688221 5.44693314 0 0 Z " fill="#DEDDDB" transform="translate(436,499)"/>
<path d="M0 0 C5.57142857 5.14285714 5.57142857 5.14285714 6 9 C6.66 9 7.32 9 8 9 C8 9.99 8 10.98 8 12 C7.34 12 6.68 12 6 12 C4.4921875 10.13671875 4.4921875 10.13671875 2.875 7.6875 C2.33617187 6.88699219 1.79734375 6.08648437 1.2421875 5.26171875 C0 3 0 3 0 0 Z " fill="#ECEDEB" transform="translate(881,181)"/>
<path d="M0 0 C0.66 0 1.32 0 2 0 C2.50559908 1.43554025 3.0042749 2.8735202 3.5 4.3125 C3.7784375 5.11300781 4.056875 5.91351562 4.34375 6.73828125 C5 9 5 9 5 12 C4.34 12 3.68 12 3 12 C2.49440092 10.56445975 1.9957251 9.1264798 1.5 7.6875 C1.2215625 6.88699219 0.943125 6.08648438 0.65625 5.26171875 C0 3 0 3 0 0 Z " fill="#E7E7E5" transform="translate(531,576)"/>
<path d="M0 0 C2 1 2 1 2.62109375 2.765625 C3.02399618 5.14150323 3.09791478 7.34179517 3.0625 9.75 C3.05347656 10.54921875 3.04445313 11.3484375 3.03515625 12.171875 C3.01775391 13.07679688 3.01775391 13.07679688 3 14 C0.31907309 11.31907309 0.61329743 9.60832637 0.375 5.875 C0.30023437 4.77929688 0.22546875 3.68359375 0.1484375 2.5546875 C0.09945312 1.71164063 0.05046875 0.86859375 0 0 Z " fill="#F9F9F8" transform="translate(906,236)"/>
<path d="M0 0 C1.8125 1.5 1.8125 1.5 3 3 C-1.8333472 3.08333357 -6.23692563 2.95261487 -11 2 C-11 1.67 -11 1.34 -11 1 C-3.55769231 -0.38461538 -3.55769231 -0.38461538 0 0 Z " fill="#C6C5C3" transform="translate(262,780)"/>
<path d="M0 0 C0 0.66 0 1.32 0 2 C-4.92737019 3.97094808 -8.78020872 4.1799928 -14 4 C-14 3.67 -14 3.34 -14 3 C-12.23050388 2.49528803 -10.45934777 1.99639315 -8.6875 1.5 C-7.70136719 1.2215625 -6.71523438 0.943125 -5.69921875 0.65625 C-3 0 -3 0 0 0 Z " fill="#E4E4E2" transform="translate(303,778)"/>
<path d="M0 0 C0 0.66 0 1.32 0 2 C-2.99480917 2.8723412 -5.63575911 3.10829766 -8.75 3.0625 C-9.54921875 3.05347656 -10.3484375 3.04445313 -11.171875 3.03515625 C-11.77515625 3.02355469 -12.3784375 3.01195312 -13 3 C-8.72352613 0.14901742 -5.0682068 -0.14480591 0 0 Z " fill="#FBFBF9" transform="translate(692,707)"/>
<path d="M0 0 C4.2742558 1.5830577 6.26531794 4.50568404 9 8 C5.02945403 8 3.83528756 6.6860619 1 4 C0.1875 1.75 0.1875 1.75 0 0 Z " fill="#F8F8F7" transform="translate(572,657)"/>
<path d="M0 0 C2.86453858 3.41016497 4.34703566 6.90694544 6 11 C2.82880497 9.90648447 1.99216457 8.9873012 0.1875 6.0625 C-1 3 -1 3 0 0 Z " fill="#E5E5E4" transform="translate(548,619)"/>
<path d="M0 0 C1 2 1 2 0.22265625 4.6015625 C-0.16019531 5.59929687 -0.54304687 6.59703125 -0.9375 7.625 C-1.50791016 9.12933594 -1.50791016 9.12933594 -2.08984375 10.6640625 C-2.39019531 11.43492187 -2.69054687 12.20578125 -3 13 C-3.66 13 -4.32 13 -5 13 C-4.34259641 10.18707119 -3.51469937 7.51667383 -2.5 4.8125 C-2.11328125 3.77029297 -2.11328125 3.77029297 -1.71875 2.70703125 C-1 1 -1 1 0 0 Z " fill="#F9F9F8" transform="translate(541,334)"/>
<path d="M0 0 C-0.33 0.66 -0.66 1.32 -1 2 C-3.32156597 2.40729228 -5.6568787 2.74438677 -8 3 C-8 2.34 -8 1.68 -8 1 C-9.65 1 -11.3 1 -13 1 C-13 0.67 -13 0.34 -13 0 C-11.58456585 -0.19658808 -10.16755969 -0.38187546 -8.75 -0.5625 C-7.96109375 -0.66691406 -7.1721875 -0.77132812 -6.359375 -0.87890625 C-3.99467126 -1.00027349 -2.2488963 -0.69633257 0 0 Z " fill="#DDDEDC" transform="translate(788,893)"/>
<path d="M0 0 C-1.5830577 4.2742558 -4.50568404 6.26531794 -8 9 C-8 6 -8 6 -6.7578125 4.39453125 C-5.94957031 3.61142578 -5.94957031 3.61142578 -5.125 2.8125 C-4.59132813 2.28269531 -4.05765625 1.75289062 -3.5078125 1.20703125 C-2 0 -2 0 0 0 Z " fill="#FCFCFA" transform="translate(363,746)"/>
<path d="M0 0 C0.33 0 0.66 0 1 0 C1.33 5.61 1.66 11.22 2 17 C1.34 17 0.68 17 0 17 C-1.40333568 11.23073111 -0.67296616 5.81856895 0 0 Z " fill="#D6D6D3" transform="translate(239,731)"/>
<path d="M0 0 C0.99 0.33 1.98 0.66 3 1 C0.69 3.64 -1.62 6.28 -4 9 C-4.66 8.67 -5.32 8.34 -6 8 C-4.768606 4.30581799 -2.79208646 2.64890254 0 0 Z " fill="#F8F8F7" transform="translate(805,483)"/>
<path d="M0 0 C4.42679007 1.47559669 4.91432696 3.90057368 7 8 C7 8.66 7 9.32 7 10 C6.34 10 5.68 10 5 10 C3.7109375 8.3203125 3.7109375 8.3203125 2.375 6.125 C1.92898438 5.40570313 1.48296875 4.68640625 1.0234375 3.9453125 C0 2 0 2 0 0 Z " fill="#E8E8E7" transform="translate(745,295)"/>
<path d="M0 0 C0.99 0 1.98 0 3 0 C2.67 4.29 2.34 8.58 2 13 C1.67 13 1.34 13 1 13 C0.67 8.71 0.34 4.42 0 0 Z " fill="#D3D2D0" transform="translate(907,248)"/>
<path d="M0 0 C0.66 0.66 1.32 1.32 2 2 C-2.95 4.475 -2.95 4.475 -8 7 C-5.76470588 2.52941176 -5.76470588 2.52941176 -2 1 C-1.34 0.67 -0.68 0.34 0 0 Z " fill="#E5E5E4" transform="translate(783,673)"/>
<path d="M0 0 C0.33 0 0.66 0 1 0 C1.33 4.62 1.66 9.24 2 14 C-1 11 -1 11 -1.07421875 8.30078125 C-0.94660156 7.31464844 -0.81898438 6.32851563 -0.6875 5.3125 C-0.56761719 4.31863281 -0.44773437 3.32476563 -0.32421875 2.30078125 C-0.21722656 1.54152344 -0.11023438 0.78226563 0 0 Z " fill="#D7D7D5" transform="translate(524,528)"/>
<path d="M0 0 C0.33 0.99 0.66 1.98 1 3 C-2.96 4.98 -2.96 4.98 -7 7 C-4.91100178 2.82200357 -3.94455388 2.07608099 0 0 Z " fill="#EDEDEB" transform="translate(802,662)"/>
<path d="M0 0 C0.66 0 1.32 0 2 0 C1.75 2.875 1.75 2.875 1 6 C-1.0625 7.375 -1.0625 7.375 -3 8 C-1.125 2.25 -1.125 2.25 0 0 Z " fill="#E9E9E7" transform="translate(462,344)"/>
<path d="M0 0 C5 6.59090909 5 6.59090909 5 10 C4.34 10 3.68 10 3 10 C1.68 7.03 0.36 4.06 -1 1 C-0.67 0.67 -0.34 0.34 0 0 Z " fill="#F9F8F7" transform="translate(752,304)"/>
<path d="M0 0 C0.66 0 1.32 0 2 0 C3.25 6.5 3.25 6.5 1 11 C0.67 7.37 0.34 3.74 0 0 Z " fill="#D8D8D6" transform="translate(330,272)"/>
<path d="M0 0 C0.96661363 3.12180401 0.98988909 5.52083795 0.5625 8.75 C0.40974609 9.94882812 0.40974609 9.94882812 0.25390625 11.171875 C0.12822266 12.07679688 0.12822266 12.07679688 0 13 C-0.33 13 -0.66 13 -1 13 C-1.33 9.37 -1.66 5.74 -2 2 C-1.34 2 -0.68 2 0 2 C0 1.34 0 0.68 0 0 Z " fill="#E4E4E2" transform="translate(116,250)"/>
<path d="M0 0 C0 1.98 0 3.96 0 6 C-0.99 6.33 -1.98 6.66 -3 7 C-3.33 5.02 -3.66 3.04 -4 1 C-2 0 -2 0 0 0 Z " fill="#EAEAE8" transform="translate(787,243)"/>
<path d="M0 0 C3.3 0.33 6.6 0.66 10 1 C8 3 8 3 6.0546875 3.1953125 C4.03645833 3.13020833 2.01822917 3.06510417 0 3 C0 2.01 0 1.02 0 0 Z " fill="#EDEDEC" transform="translate(680,228)"/>
<path d="M0 0 C2.64 0.33 5.28 0.66 8 1 C7.01 1.495 7.01 1.495 6 2 C5.67 2.66 5.34 3.32 5 4 C3.35 3.67 1.7 3.34 0 3 C0 2.01 0 1.02 0 0 Z " fill="#DCDCDB" transform="translate(240,892)"/>
<path d="M0 0 C0.33 0 0.66 0 1 0 C1.22174933 1.45635371 1.42698698 2.91522956 1.625 4.375 C1.74101563 5.18710937 1.85703125 5.99921875 1.9765625 6.8359375 C1.98429687 7.55007813 1.99203125 8.26421875 2 9 C1.34 9.66 0.68 10.32 0 11 C-1.28571429 3.57142857 -1.28571429 3.57142857 0 0 Z " fill="#DAD9D8" transform="translate(116,759)"/>
<path d="M0 0 C0.33 0.99 0.66 1.98 1 3 C-1.31 4.32 -3.62 5.64 -6 7 C-5.34 5.68 -4.68 4.36 -4 3 C-3.34 3 -2.68 3 -2 3 C-2 2.34 -2 1.68 -2 1 C-1.34 0.67 -0.68 0.34 0 0 Z " fill="#EBECEA" transform="translate(348,758)"/>
<path d="M0 0 C0 0.66 0 1.32 0 2 C0.66 2.33 1.32 2.66 2 3 C-1.63 2.67 -5.26 2.34 -9 2 C-5.23312136 0.11656068 -3.97041037 -0.22057835 0 0 Z " fill="#D7D7D5" transform="translate(611,708)"/>
<path d="M0 0 C0.66 0.33 1.32 0.66 2 1 C1.74438677 3.3431213 1.40729228 5.67843403 1 8 C0.01 8.495 0.01 8.495 -1 9 C-0.67 6.03 -0.34 3.06 0 0 Z " fill="#E1E1DE" transform="translate(443,398)"/>
<path d="M0 0 C0.33 0 0.66 0 1 0 C1.33 3.3 1.66 6.6 2 10 C1.34 10 0.68 10 0 10 C-0.74926071 6.33694766 -1.2380014 3.57644848 0 0 Z " fill="#EDEDEB" transform="translate(783,363)"/>
<path d="M0 0 C0.66 0.33 1.32 0.66 2 1 C1.01 2.98 0.02 4.96 -1 7 C-1.99 6.67 -2.98 6.34 -4 6 C-2.25 1.125 -2.25 1.125 0 0 Z " fill="#EAEAE9" transform="translate(554,305)"/>
<path d="M0 0 C0.66 0 1.32 0 2 0 C0.8141763 3.37503669 -0.27573689 5.64722731 -3 8 C-3.33 7.34 -3.66 6.68 -4 6 C-2.7260411 3.96166576 -1.38938077 1.96147874 0 0 Z " fill="#FAFAF8" transform="translate(315,735)"/>
<path d="M0 0 C0.226875 0.61875 0.45375 1.2375 0.6875 1.875 C2.37929835 4.61410209 3.99244161 5.05024472 7 6 C7 6.33 7 6.66 7 7 C4.69 7 2.38 7 0 7 C0 4.69 0 2.38 0 0 Z " fill="#FDFDFC" transform="translate(771,369)"/>
<path d="M0 0 C0.66 0.33 1.32 0.66 2 1 C1.67 2.98 1.34 4.96 1 7 C0.01 7.33 -0.98 7.66 -2 8 C-1.34 5.36 -0.68 2.72 0 0 Z " fill="#DEDEDD" transform="translate(454,362)"/>
<path d="M0 0 C3.1875 0.875 3.1875 0.875 6 2 C6 2.66 6 3.32 6 4 C1.545 3.01 1.545 3.01 -3 2 C-2.01 1.34 -1.02 0.68 0 0 Z " fill="#D6D6D5" transform="translate(680,247)"/>
<path d="M0 0 C4.455 0.99 4.455 0.99 9 2 C8.34 2.66 7.68 3.32 7 4 C3.875 3.625 3.875 3.625 1 3 C0.67 2.01 0.34 1.02 0 0 Z " fill="#E1E0DE" transform="translate(741,243)"/>
<path d="M0 0 C3.3 0.33 6.6 0.66 10 1 C10 1.33 10 1.66 10 2 C6.37 2.33 2.74 2.66 -1 3 C-0.67 2.01 -0.34 1.02 0 0 Z " fill="#DDDCDB" transform="translate(235,123)"/>
</svg>
